<svg xmlns="http://www.w3.org/2000/svg" version="1.1" xmlns:xlink="http://www.w3.org/1999/xlink" xmlns:svgjs="http://svgjs.com/svgjs" width="1000" height="1000"><g transform="matrix(14.925373134328359,0,0,14.925373134328359,2.550125721675215,349.9878489971161)"><svg xmlns="http://www.w3.org/2000/svg" version="1.1" xmlns:xlink="http://www.w3.org/1999/xlink" xmlns:svgjs="http://svgjs.com/svgjs" width="67" height="20"><svg width="67" height="20" viewBox="0 0 67 20" fill="none" xmlns="http://www.w3.org/2000/svg">
<path d="M0.282143 19.5V0.989285H5.20143L9.84179 12.045H10.2982L14.9132 0.989285H19.9086V19.5H16.3332V3.7025L16.7896 3.75321L11.7943 15.7218H8.1175L3.09679 3.75321L3.57857 3.7025V19.5H0.282143ZM24.5515 19.5V5.73107H28.0761V19.5H24.5515ZM22.6244 8.36821V5.73107H28.0761V8.36821H22.6244ZM25.8447 4.08286C25.1516 4.08286 24.636 3.90536 24.2979 3.55036C23.9767 3.17845 23.8161 2.72202 23.8161 2.18107C23.8161 1.60631 23.9767 1.14143 24.2979 0.786427C24.636 0.431427 25.1516 0.253927 25.8447 0.253927C26.5378 0.253927 27.045 0.431427 27.3661 0.786427C27.6873 1.14143 27.8479 1.60631 27.8479 2.18107C27.8479 2.72202 27.6873 3.17845 27.3661 3.55036C27.045 3.90536 26.5378 4.08286 25.8447 4.08286Z" fill="black"></path>
<path d="M35.2065 13.82V10.7011H38.8072C39.5341 10.7011 40.1426 10.5574 40.6329 10.27C41.14 9.98262 41.5204 9.58536 41.774 9.07821C42.0444 8.57107 42.1797 7.98786 42.1797 7.32857C42.1797 6.66928 42.0444 6.08607 41.774 5.57893C41.5204 5.07178 41.14 4.68297 40.6329 4.4125C40.1426 4.12512 39.5341 3.98143 38.8072 3.98143H35.2065V0.862499H38.5029C40.0581 0.862499 41.3767 1.11607 42.4586 1.62321C43.5574 2.13036 44.3942 2.85726 44.969 3.80393C45.5437 4.73369 45.8311 5.84095 45.8311 7.12571V7.53143C45.8311 8.81619 45.5437 9.9319 44.969 10.8786C44.3942 11.8083 43.5574 12.5352 42.4586 13.0593C41.3767 13.5664 40.0581 13.82 38.5029 13.82H35.2065ZM32.1129 19.5V0.862499H35.7136V19.5H32.1129ZM56.389 19.5V15.4175H55.8058V10.8786C55.8058 10.084 55.6114 9.49238 55.2226 9.10357C54.8337 8.71476 54.2336 8.52036 53.4222 8.52036C52.9996 8.52036 52.4924 8.52881 51.9008 8.54571C51.3091 8.56262 50.709 8.58798 50.1004 8.62178C49.5087 8.63869 48.9762 8.66405 48.5029 8.69786V5.70571C48.8917 5.6719 49.3312 5.63809 49.8215 5.60428C50.3117 5.57048 50.8104 5.55357 51.3176 5.55357C51.8416 5.53667 52.3318 5.52821 52.7883 5.52821C54.2083 5.52821 55.3832 5.71417 56.3129 6.08607C57.2596 6.45798 57.9696 7.04119 58.4429 7.83571C58.9332 8.63024 59.1783 9.66988 59.1783 10.9546V19.5H56.389ZM51.9515 19.855C50.9541 19.855 50.0751 19.6775 49.3143 19.3225C48.5705 18.9675 47.9873 18.4604 47.5647 17.8011C47.159 17.1418 46.9561 16.3473 46.9561 15.4175C46.9561 14.4032 47.2012 13.5749 47.6915 12.9325C48.1986 12.2901 48.9002 11.8083 49.7961 11.4871C50.709 11.166 51.774 11.0054 52.9911 11.0054H56.1861V13.11H52.9404C52.129 13.11 51.5035 13.3129 51.064 13.7186C50.6414 14.1074 50.4301 14.6145 50.4301 15.24C50.4301 15.8655 50.6414 16.3726 51.064 16.7614C51.5035 17.1502 52.129 17.3446 52.9404 17.3446C53.4307 17.3446 53.8786 17.2601 54.2843 17.0911C54.707 16.9051 55.0535 16.6008 55.324 16.1782C55.6114 15.7387 55.772 15.147 55.8058 14.4032L56.6679 15.3921C56.5834 16.3557 56.3467 17.1671 55.9579 17.8264C55.586 18.4857 55.062 18.9929 54.3858 19.3479C53.7265 19.686 52.9151 19.855 51.9515 19.855ZM62.8269 19.5V0.989285H66.3516V19.5H62.8269ZM61.1026 3.62643V0.989285H66.3516V3.62643H61.1026Z" fill="#DB3A07"></path>
</svg></svg></g></svg>