<?xml version="1.0" standalone="no"?>
<!DOCTYPE svg PUBLIC "-//W3C//DTD SVG 20010904//EN"
 "http://www.w3.org/TR/2001/REC-SVG-20010904/DTD/svg10.dtd">
<svg version="1.0" xmlns="http://www.w3.org/2000/svg"
 width="2144.000000pt" height="2144.000000pt" viewBox="0 0 2144.000000 2144.000000"
 preserveAspectRatio="xMidYMid meet">
<metadata>
Created by potrace 1.14, written by Peter Selinger 2001-2017
</metadata>
<g transform="translate(0.000000,2144.000000) scale(0.100000,-0.100000)"
fill="#000000" stroke="none">
<path d="M8148 13835 c-2 -2 -19 -6 -38 -9 -72 -12 -92 -17 -148 -38 -92 -34
-157 -83 -229 -171 -34 -42 -76 -145 -100 -242 -3 -11 -6 -72 -8 -135 -6 -245
88 -442 260 -540 49 -28 73 -38 140 -57 93 -26 297 -35 403 -18 56 9 76 13 80
15 1 2 5 3 10 4 126 30 241 118 306 238 67 121 80 178 81 348 0 193 -41 315
-147 434 -102 115 -241 166 -465 171 -78 2 -143 2 -145 0z"/>
<path d="M10279 13635 c-1 -5 -2 -1346 -3 -2978 l-1 -2968 30 -8 c17 -4 31 -4
33 0 2 4 16 3 33 -1 16 -5 29 -5 29 0 0 4 16 4 35 0 19 -4 35 -4 35 0 0 5 13
5 29 0 16 -4 32 -6 35 -3 8 9 76 9 76 1 0 -4 14 -3 30 2 17 5 30 6 30 2 0 -4
16 -7 35 -7 19 0 35 3 35 7 0 4 14 3 30 -2 19 -5 30 -5 30 1 0 6 5 7 10 4 14
-9 103 -10 116 -2 5 3 16 2 24 -3 7 -4 23 -4 36 0 12 5 25 6 28 3 8 -8 76 -9
76 -1 0 4 13 3 29 -2 16 -4 32 -5 36 -2 7 7 105 5 112 -2 3 -3 16 -1 29 4 14
6 26 6 29 0 3 -6 15 -6 30 0 14 5 27 5 30 1 3 -5 14 -7 24 -4 18 5 19 29 20
861 0 472 0 880 1 908 l0 51 498 0 c438 0 721 6 779 17 10 2 49 7 88 11 38 4
72 8 75 10 3 2 32 6 64 10 33 3 64 8 68 11 5 3 19 7 31 9 82 11 334 80 354 97
7 6 13 7 13 3 0 -4 6 -3 13 2 6 6 30 16 52 23 150 48 400 196 565 336 235 197
393 422 510 724 12 30 24 64 27 75 9 40 11 50 13 50 1 0 3 7 5 15 33 129 47
192 51 240 1 19 3 35 4 35 4 0 11 49 17 130 14 187 7 527 -13 680 -3 17 -6 47
-9 67 -2 20 -9 56 -15 80 -7 23 -14 50 -15 58 -23 100 -70 239 -110 324 -14
29 -25 58 -25 64 0 7 -3 12 -8 12 -4 0 -15 17 -25 38 -9 20 -28 55 -42 77 -14
22 -30 50 -37 63 -6 12 -15 22 -20 22 -4 0 -8 6 -8 14 0 8 -3 16 -7 18 -5 2
-28 30 -53 63 -48 63 -205 223 -259 265 -116 88 -147 110 -157 110 -6 0 -19 9
-28 19 -28 31 -311 167 -448 216 -71 24 -128 42 -128 39 0 -2 -8 0 -19 5 -17
10 -155 43 -226 55 -45 8 -88 15 -110 20 -11 2 -49 7 -85 11 -36 4 -76 9 -90
10 -167 21 -2439 30 -2441 10z m2326 -999 c124 -19 252 -54 310 -84 17 -9 32
-17 35 -17 3 -1 25 -12 49 -25 45 -26 54 -31 106 -64 53 -34 180 -169 218
-232 85 -140 142 -301 164 -461 8 -62 9 -296 0 -348 -3 -22 -8 -58 -12 -80
-15 -110 -113 -345 -178 -429 -93 -122 -238 -240 -367 -300 -62 -28 -171 -64
-216 -71 -16 -2 -38 -6 -50 -9 -73 -16 -187 -19 -681 -20 l-553 -1 0 55 c-4
369 0 2081 4 2088 6 9 1109 8 1171 -2z"/>
<path d="M94 13595 c-2 -5 -3 -1337 -2 -2960 l3 -2949 25 -6 c14 -4 40 -3 57
1 18 4 33 3 33 -1 0 -5 14 -5 30 0 17 5 30 5 30 0 0 -5 13 -5 30 0 17 5 30 5
30 0 0 -5 13 -5 30 0 17 5 30 5 30 0 0 -5 13 -5 30 0 17 5 32 5 35 0 3 -5 15
-6 29 0 12 4 29 4 36 0 8 -5 21 -5 30 0 9 5 22 5 29 1 7 -5 29 -5 50 -1 21 4
47 3 59 -1 12 -5 24 -4 27 1 3 6 15 6 29 0 13 -5 27 -6 30 -3 8 8 76 9 76 1 0
-4 13 -3 30 2 17 5 30 5 30 0 0 -5 13 -5 30 0 17 5 30 5 30 0 0 -5 13 -5 30 0
17 5 30 5 30 0 0 -5 13 -5 29 0 16 4 33 4 37 0 5 -4 18 -4 29 0 20 7 20 16 20
2329 0 1276 3 2321 6 2321 4 0 10 -10 14 -22 9 -29 8 -25 29 -73 9 -22 33 -78
53 -125 48 -118 63 -152 75 -174 5 -10 11 -26 13 -35 3 -14 44 -111 90 -216 7
-16 30 -70 50 -120 20 -49 42 -103 50 -120 14 -32 27 -61 70 -165 15 -36 32
-76 38 -90 6 -14 11 -27 12 -30 1 -3 9 -23 19 -45 10 -22 24 -58 32 -79 8 -22
19 -45 25 -53 6 -7 8 -13 5 -13 -4 0 0 -12 8 -27 9 -16 32 -68 52 -118 20 -49
44 -108 54 -130 10 -22 34 -80 54 -130 20 -49 41 -99 46 -110 9 -20 72 -168
137 -325 19 -47 44 -104 54 -127 10 -24 19 -45 19 -48 0 -3 9 -24 19 -48 11
-23 32 -71 46 -107 15 -36 33 -80 41 -97 8 -18 20 -48 28 -65 8 -18 26 -62 41
-98 14 -36 32 -78 40 -95 7 -16 23 -55 35 -85 12 -30 27 -68 35 -85 7 -16 22
-50 32 -75 11 -25 44 -105 74 -177 l54 -133 586 0 c458 0 589 3 596 13 5 6 23
46 40 87 17 41 116 280 221 530 104 250 195 469 202 485 7 17 19 44 26 60 7
17 28 68 47 115 36 88 159 382 182 435 7 17 25 62 41 100 15 39 31 74 36 79 4
6 8 18 8 28 0 10 4 18 8 18 5 0 9 6 9 13 1 11 52 136 99 242 10 22 19 45 20
50 2 11 85 206 115 272 10 24 19 46 19 49 0 3 7 21 15 40 29 66 44 100 95 224
29 69 57 136 63 150 6 14 11 27 12 30 0 3 11 27 23 54 12 27 22 50 22 53 0 2
9 25 21 51 11 26 24 56 28 67 5 11 18 41 30 66 11 25 21 50 21 55 1 5 11 31
23 58 l23 48 0 -2333 c-1 -1983 1 -2335 13 -2347 8 -7 17 -10 20 -5 7 10 71
11 71 1 0 -3 14 -3 30 2 17 5 30 5 30 0 0 -5 13 -5 30 0 17 5 30 5 30 0 0 -5
13 -5 30 0 17 5 30 5 30 0 0 -5 13 -5 30 0 17 5 32 5 35 0 3 -5 15 -6 29 0 12
4 29 4 36 0 8 -5 21 -5 30 0 9 5 22 5 29 1 7 -5 29 -5 50 -1 21 4 47 3 59 -1
12 -5 24 -4 27 1 3 6 15 6 29 0 13 -5 27 -6 30 -3 8 8 76 9 76 1 0 -4 14 -3
30 2 17 5 30 5 30 0 0 -5 13 -5 30 0 17 5 30 5 30 0 0 -5 13 -5 30 0 17 5 30
5 30 0 0 -5 13 -5 30 0 17 5 32 5 35 0 3 -6 16 -5 29 0 13 5 26 6 30 3 3 -3
24 -6 48 -6 l43 -1 0 2964 0 2965 -793 0 c-437 0 -797 -2 -800 -5 -4 -3 -8
-12 -10 -20 -2 -8 -12 -32 -22 -55 -10 -22 -39 -92 -65 -155 -26 -63 -56 -134
-66 -157 -10 -23 -19 -44 -19 -46 0 -3 -10 -26 -22 -53 -12 -27 -23 -51 -23
-54 -1 -3 -6 -16 -12 -30 -6 -14 -32 -77 -58 -140 -26 -63 -58 -138 -71 -167
-13 -28 -24 -56 -24 -62 0 -6 -9 -26 -20 -46 -11 -19 -18 -35 -16 -35 2 0 -8
-26 -23 -57 -16 -32 -31 -69 -35 -83 -4 -14 -16 -43 -26 -65 -9 -22 -46 -107
-80 -190 -34 -82 -70 -168 -80 -190 -31 -73 -105 -250 -105 -255 -1 -3 -9 -22
-18 -44 -9 -21 -17 -40 -17 -42 0 -2 -11 -27 -24 -56 -32 -71 -136 -318 -136
-324 0 -4 -20 -52 -50 -119 -5 -11 -28 -65 -50 -120 -23 -55 -47 -113 -54
-130 -8 -16 -30 -70 -51 -120 -45 -110 -48 -117 -76 -180 -12 -27 -23 -52 -23
-55 -1 -3 -5 -11 -9 -17 -5 -7 -5 -13 -2 -13 3 0 0 -12 -9 -27 -17 -34 -46
-99 -46 -106 0 -3 -15 -38 -33 -79 -18 -40 -48 -111 -67 -158 l-33 -85 -61 1
c-89 2 -96 3 -96 15 0 5 -9 29 -19 52 -11 23 -34 78 -51 122 -17 44 -37 86
-43 94 -7 8 -10 15 -7 15 2 1 -17 51 -43 113 -26 62 -47 117 -47 123 0 5 -4
10 -10 10 -5 0 -10 6 -10 14 0 7 -9 33 -19 57 -10 24 -42 100 -71 169 -29 69
-61 144 -71 167 -10 24 -19 45 -19 48 0 3 -9 25 -20 50 -11 25 -29 65 -40 90
-11 25 -20 47 -20 50 0 2 -11 28 -24 57 -12 29 -44 105 -71 168 -26 63 -58
140 -72 170 -14 30 -26 60 -28 65 -4 20 -38 101 -56 137 -5 10 -9 25 -9 33 0
8 -4 15 -10 15 -5 0 -10 6 -10 13 0 12 -54 143 -97 236 -8 18 -16 39 -18 45
-1 6 -10 29 -19 51 -10 22 -24 54 -31 70 -7 17 -30 71 -50 120 -21 50 -50 119
-65 155 -16 36 -37 88 -48 115 -11 28 -28 68 -38 90 -10 22 -18 42 -19 45 -5
16 -75 181 -86 203 -15 27 -50 126 -49 133 1 4 -2 10 -7 13 -5 3 -22 38 -37
76 -15 39 -34 84 -41 100 -7 17 -21 50 -32 75 -11 25 -30 71 -43 103 -13 31
-28 58 -34 58 -6 1 -359 2 -785 3 -508 1 -775 -2 -777 -9z"/>
<path d="M19555 13600 c-1 -3 -3 -192 -3 -421 l0 -416 47 -2 c25 -1 61 -3 79
-4 17 -2 32 0 32 4 0 4 8 5 18 2 10 -2 98 -5 197 -6 l180 -2 0 -2535 0 -2535
52 -1 c29 -1 60 -4 68 -8 8 -3 15 -1 15 4 0 5 13 5 30 0 17 -5 30 -5 30 0 0 5
13 5 30 0 17 -5 30 -5 30 0 0 5 13 5 30 0 17 -5 30 -5 30 0 0 5 13 5 30 0 17
-5 30 -5 30 0 0 5 13 5 30 0 17 -5 30 -5 30 0 0 5 13 5 30 0 17 -5 30 -5 30 0
0 5 13 5 30 0 17 -5 30 -5 30 0 0 5 13 5 30 0 19 -5 30 -5 30 1 0 6 5 7 10 4
14 -9 103 -10 116 -2 5 3 16 2 24 -3 7 -4 23 -4 36 0 12 5 25 6 28 3 8 -8 76
-9 76 -1 0 4 13 3 29 -2 16 -4 32 -6 35 -3 7 7 105 7 112 0 10 -10 44 6 45 22
5 107 0 5893 -5 5898 -8 8 -1666 11 -1671 3z"/>
<path d="M16277 12144 c-1 -1 -67 -5 -147 -8 -163 -7 -234 -12 -335 -20 -115
-9 -229 -18 -250 -20 -14 -1 -21 -9 -22 -26 -2 -31 -3 -159 -2 -270 0 -47 0
-112 -1 -145 0 -33 1 -95 2 -138 2 -42 -1 -77 -5 -77 -5 0 -5 -5 -1 -11 4 -6
6 -74 6 -151 l-1 -140 132 7 c73 4 177 9 232 11 55 2 152 6 215 9 428 22 1077
34 1145 22 11 -2 43 -8 70 -12 56 -10 64 -12 68 -14 1 -2 13 -4 27 -7 53 -9
181 -75 228 -117 34 -30 43 -40 85 -90 29 -34 85 -157 101 -222 29 -116 43
-324 23 -326 -62 -4 -107 -3 -107 4 0 4 -8 4 -17 0 -22 -10 -94 -10 -110 0 -6
4 -14 4 -16 0 -3 -5 -29 -7 -59 -5 -56 2 -106 2 -148 -1 -14 -2 -33 1 -42 6
-10 4 -18 4 -18 0 0 -10 -153 -9 -169 1 -6 4 -11 3 -11 -1 0 -10 -41 -10 -57
0 -7 4 -14 4 -16 0 -4 -7 -92 -9 -107 -3 -3 1 -9 1 -15 0 -5 -1 -66 -4 -135
-5 -69 -2 -152 -6 -185 -10 -33 -3 -80 -8 -105 -10 -117 -12 -142 -15 -149
-19 -3 -2 -27 -7 -51 -11 -25 -3 -65 -11 -90 -17 -25 -5 -52 -11 -60 -13 -8
-1 -35 -8 -60 -15 -25 -7 -52 -13 -60 -15 -34 -7 -151 -50 -240 -88 -184 -79
-331 -178 -466 -313 -74 -74 -174 -209 -174 -234 0 -5 -4 -10 -10 -10 -5 0
-10 -8 -10 -18 0 -10 -4 -22 -9 -28 -21 -23 -72 -171 -87 -254 -3 -14 -8 -34
-11 -45 -3 -11 -7 -33 -9 -50 -1 -16 -5 -50 -9 -75 -8 -51 -8 -303 0 -370 6
-55 12 -98 18 -126 3 -12 8 -37 11 -55 3 -19 12 -53 20 -77 8 -23 15 -44 16
-47 4 -33 14 -65 20 -65 3 0 7 -6 7 -12 0 -29 106 -223 155 -283 91 -112 123
-143 282 -272 35 -28 199 -120 261 -146 139 -58 301 -104 438 -123 15 -2 38
-6 52 -8 129 -24 498 -24 606 0 13 3 40 7 60 8 20 2 45 6 55 10 11 3 33 8 51
11 104 17 300 98 418 173 64 41 201 152 217 177 3 6 19 24 35 41 44 49 62 72
109 145 55 85 139 252 153 306 6 23 15 44 19 47 4 2 7 -181 7 -407 l0 -412 43
0 c23 0 42 -3 42 -7 0 -4 14 -3 30 2 17 5 30 5 30 0 0 -5 13 -5 30 0 17 5 30
5 30 0 0 -5 13 -5 30 0 17 5 30 5 30 0 0 -5 13 -5 30 0 17 5 32 5 35 0 3 -5
15 -6 29 0 12 4 29 4 36 0 8 -5 21 -5 30 0 9 5 22 5 29 1 7 -5 29 -5 50 -1 21
4 47 3 59 -1 12 -5 24 -4 27 1 3 6 15 6 29 0 13 -5 27 -6 30 -3 8 8 76 9 76 1
0 -4 14 -3 30 2 17 5 30 6 30 2 0 -4 17 -6 37 -5 21 1 45 2 54 2 14 1 16 134
13 1479 -1 812 -4 1493 -7 1512 -9 64 -19 145 -22 170 -1 14 -5 36 -8 50 -45
193 -73 282 -130 400 -41 86 -132 232 -148 238 -5 2 -9 8 -9 13 0 25 -167 186
-268 259 -43 30 -97 64 -120 75 -23 11 -42 23 -42 28 0 4 -4 7 -10 7 -5 0 -38
13 -72 29 -55 25 -195 78 -223 85 -5 2 -23 6 -40 10 -16 4 -41 12 -55 17 -26
10 -57 17 -100 24 -14 2 -46 8 -73 14 -26 6 -64 13 -85 16 -20 3 -50 7 -67 10
-38 6 -104 14 -180 22 -50 5 -993 12 -998 7z m1578 -2434 c5 -20 -2 -494 -9
-544 -3 -22 -10 -63 -16 -93 -6 -29 -11 -56 -12 -60 0 -5 -6 -23 -13 -40 -8
-18 -12 -33 -10 -33 4 0 -20 -60 -53 -130 -18 -40 -108 -165 -145 -202 -89
-89 -202 -155 -327 -191 -117 -34 -145 -38 -305 -42 -136 -4 -240 7 -345 35
-72 19 -185 71 -219 100 -9 8 -26 20 -37 26 -32 18 -130 141 -157 197 -68 140
-87 313 -52 477 2 8 4 15 5 15 1 0 3 8 5 17 14 76 84 195 155 268 40 41 186
140 206 140 6 0 24 7 40 14 16 8 43 17 59 20 17 3 46 10 65 16 19 5 66 13 105
16 38 3 71 7 72 8 1 0 222 1 492 1 432 0 492 -1 496 -15z"/>
<path d="M7238 12049 c-2 -21 0 -49 3 -63 4 -14 4 -26 0 -26 -4 0 -6 -15 -4
-32 5 -48 4 -140 0 -145 -3 -2 -1 -19 3 -38 4 -19 5 -36 2 -39 -4 -5 -6 -86
-2 -103 1 -5 1 -19 0 -33 -6 -56 -5 -76 2 -96 4 -12 4 -24 2 -27 -3 -3 -6 -49
-7 -102 -2 -89 0 -96 18 -100 11 -2 139 -4 285 -3 146 0 276 -1 291 -1 l25 -1
-1 -1762 c-1 -970 2 -1770 7 -1779 9 -19 45 -31 54 -18 3 5 10 7 15 3 13 -8
103 -9 115 -1 5 3 16 2 24 -3 7 -4 23 -4 36 0 12 5 25 6 28 3 8 -8 76 -9 76
-1 0 4 13 3 29 -2 16 -4 32 -6 35 -3 7 8 105 7 113 -1 3 -3 13 -1 22 4 10 5
23 5 31 0 8 -5 21 -5 30 0 9 5 22 5 30 0 7 -4 24 -4 36 0 14 6 26 5 29 0 3 -5
18 -5 35 0 17 5 30 5 30 0 0 -5 13 -5 30 0 17 5 30 5 30 0 0 -5 13 -5 30 0 17
5 30 6 30 2 0 -4 16 -7 35 -7 19 0 35 3 35 7 0 4 14 3 30 -2 17 -5 30 -5 30 0
0 5 12 5 28 1 15 -4 38 -5 52 -1 l25 6 1 2189 c0 1205 -1 2195 -3 2201 -3 7
-270 10 -872 10 l-869 0 -4 -37z"/>
</g>
</svg>
